<svg width="60" height="60" viewBox="0 0 60 60" fill="none" xmlns="http://www.w3.org/2000/svg">
<rect width="60" height="60" rx="30" fill="black" fill-opacity="0.8"/>
<path fill-rule="evenodd" clip-rule="evenodd" d="M30 20.25C27.3519 20.25 27.0204 20.2611 25.9804 20.3085C24.9423 20.3559 24.2332 20.521 23.6131 20.7622C22.9631 21.0066 22.3735 21.3901 21.886 21.8867C21.3902 22.3736 21.0065 22.9628 20.7616 23.6131C20.5217 24.2332 20.3559 24.943 20.3085 25.9811C20.2617 27.0204 20.25 27.3512 20.25 30C20.25 32.6487 20.2611 32.9796 20.3085 34.0196C20.3559 35.0576 20.521 35.7668 20.7622 36.3869C21.0066 37.0369 21.3901 37.6264 21.8867 38.1139C22.3737 38.6097 22.9628 38.9935 23.6131 39.2384C24.2332 39.4789 24.9423 39.644 25.9804 39.6915C27.0204 39.7389 27.3519 39.75 30 39.75C32.6481 39.75 32.9796 39.7389 34.0196 39.6915C35.0576 39.644 35.7668 39.4789 36.3869 39.2378C37.0369 38.9934 37.6264 38.6099 38.1139 38.1133C38.6098 37.6264 38.9935 37.0372 39.2384 36.3869C39.4789 35.7668 39.644 35.0576 39.6915 34.0196C39.7389 32.9796 39.75 32.6481 39.75 30C39.75 27.3519 39.7389 27.0204 39.6915 25.9804C39.644 24.9423 39.4789 24.2332 39.2378 23.6131C38.993 22.9625 38.6093 22.3731 38.1133 21.886C37.6264 21.3902 37.0372 21.0065 36.3869 20.7616C35.7668 20.5217 35.057 20.3559 34.0189 20.3085C32.9796 20.2617 32.6487 20.25 30 20.25ZM30 22.007C32.6032 22.007 32.912 22.0167 33.9403 22.0635C34.8906 22.107 35.4067 22.265 35.7505 22.3995C36.2055 22.5757 36.5306 22.7876 36.8718 23.1282C37.213 23.4694 37.4243 23.7944 37.6005 24.2494C37.7344 24.5933 37.8929 25.1094 37.9365 26.0597C37.9833 27.088 37.993 27.3967 37.993 30C37.993 32.6032 37.9833 32.912 37.9365 33.9403C37.8929 34.8906 37.735 35.4067 37.6005 35.7505C37.4444 36.1741 37.1954 36.5572 36.8718 36.8718C36.5573 37.1955 36.1741 37.4445 35.7505 37.6005C35.4067 37.7344 34.8906 37.8929 33.9403 37.9365C32.912 37.9833 32.6039 37.993 30 37.993C27.3961 37.993 27.088 37.9833 26.0597 37.9365C25.1094 37.8929 24.5933 37.735 24.2494 37.6005C23.8259 37.4444 23.4428 37.1954 23.1282 36.8718C22.8046 36.5572 22.5556 36.174 22.3995 35.7505C22.2656 35.4067 22.107 34.8906 22.0635 33.9403C22.0167 32.912 22.007 32.6032 22.007 30C22.007 27.3967 22.0167 27.088 22.0635 26.0597C22.107 25.1094 22.265 24.5933 22.3995 24.2494C22.5757 23.7944 22.7876 23.4694 23.1282 23.1282C23.4428 22.8045 23.8259 22.5555 24.2494 22.3995C24.5933 22.2656 25.1094 22.107 26.0597 22.0635C27.088 22.0167 27.3967 22.007 30 22.007Z" fill="white"/>
<path fill-rule="evenodd" clip-rule="evenodd" d="M30 33.2533C29.5728 33.2533 29.1498 33.1691 28.7551 33.0056C28.3604 32.8421 28.0017 32.6025 27.6996 32.3004C27.3975 31.9983 27.1579 31.6397 26.9944 31.245C26.8309 30.8503 26.7468 30.4272 26.7468 30C26.7468 29.5728 26.8309 29.1497 26.9944 28.755C27.1579 28.3603 27.3975 28.0017 27.6996 27.6996C28.0017 27.3975 28.3604 27.1579 28.7551 26.9944C29.1498 26.8309 29.5728 26.7468 30 26.7468C30.8628 26.7468 31.6903 27.0895 32.3004 27.6996C32.9105 28.3097 33.2533 29.1372 33.2533 30C33.2533 30.8628 32.9105 31.6903 32.3004 32.3004C31.6903 32.9105 30.8628 33.2533 30 33.2533ZM30 24.9885C28.6709 24.9885 27.3962 25.5165 26.4564 26.4563C25.5165 27.3962 24.9885 28.6709 24.9885 30C24.9885 31.3291 25.5165 32.6038 26.4564 33.5437C27.3962 34.4835 28.6709 35.0115 30 35.0115C31.3292 35.0115 32.6038 34.4835 33.5437 33.5437C34.4835 32.6038 35.0115 31.3291 35.0115 30C35.0115 28.6709 34.4835 27.3962 33.5437 26.4563C32.6038 25.5165 31.3292 24.9885 30 24.9885ZM36.4695 24.8975C36.4695 25.2117 36.3447 25.513 36.1225 25.7352C35.9003 25.9573 35.599 26.0821 35.2848 26.0821C34.9707 26.0821 34.6694 25.9573 34.4472 25.7352C34.225 25.513 34.1002 25.2117 34.1002 24.8975C34.1002 24.5833 34.225 24.282 34.4472 24.0598C34.6694 23.8377 34.9707 23.7129 35.2848 23.7129C35.599 23.7129 35.9003 23.8377 36.1225 24.0598C36.3447 24.282 36.4695 24.5833 36.4695 24.8975Z" fill="white"/>
</svg>
