<svg width="60" height="60" viewBox="0 0 60 60" fill="none" xmlns="http://www.w3.org/2000/svg">
<rect width="60" height="60" rx="30" fill="black" fill-opacity="0.8"/>
<g clip-path="url(#clip0_1_51)">
<path fill-rule="evenodd" clip-rule="evenodd" d="M25.5125 34.4885C29.5177 38.4937 33.2292 38.9323 34.3188 38.9729C35.6354 39.0208 36.9792 37.9458 37.5604 36.8448C36.6334 35.7573 35.4261 34.9135 34.1031 33.999C33.324 34.7781 32.3636 36.226 31.0823 35.7073C30.3542 35.4146 28.5563 34.5865 26.9854 33.0146C25.4136 31.4437 24.5865 29.6458 24.2917 28.9187C23.7729 27.6365 25.225 26.6729 26.0052 25.8927C25.0906 24.549 24.2615 23.3104 23.1761 22.4302C22.0594 23.0135 20.9781 24.3469 21.0271 25.6812C21.0677 26.7708 21.5063 30.4823 25.5125 34.4885ZM34.2417 41.0542C32.7417 40.999 28.4906 40.4125 24.0386 35.9604C19.5875 31.5094 19.0011 27.2594 18.9448 25.7583C18.8615 23.4708 20.6136 21.249 22.6375 20.3812C22.8812 20.276 23.1481 20.2359 23.412 20.265C23.6759 20.294 23.9277 20.3912 24.1427 20.5469C25.8177 21.7687 26.9729 23.6198 27.9656 25.0698C28.1722 25.3713 28.2668 25.7355 28.2331 26.0994C28.1994 26.4633 28.0396 26.804 27.7813 27.0625L26.3688 28.476C26.6969 29.2 27.3646 30.4479 28.4584 31.5417C29.5521 32.6354 30.8 33.3031 31.525 33.6312L32.9365 32.2187C33.196 31.9599 33.5381 31.8003 33.9032 31.7677C34.2683 31.7352 34.6332 31.8317 34.9344 32.0406C36.4136 33.0656 38.1511 34.2042 39.4177 35.826C39.5861 36.0426 39.6932 36.3004 39.7278 36.5725C39.7625 36.8447 39.7234 37.1211 39.6146 37.3729C38.7427 39.4073 36.5365 41.1385 34.2417 41.0542Z" fill="white"/>
</g>
<defs>
<clipPath id="clip0_1_51">
<rect width="25" height="25" fill="white" transform="translate(17 18)"/>
</clipPath>
</defs>
</svg>
