<svg width="60" height="60" viewBox="0 0 60 60" fill="none" xmlns="http://www.w3.org/2000/svg">
<rect width="60" height="60" rx="30" fill="black" fill-opacity="0.8"/>
<path d="M37.6638 23C38.2338 23 38.6638 23.5 38.4338 24.43L35.6438 37.58C35.4488 38.515 34.8838 38.74 34.1038 38.305L27.4488 33.39C27.423 33.3715 27.402 33.3471 27.3875 33.3188C27.373 33.2906 27.3654 33.2593 27.3654 33.2275C27.3654 33.1957 27.373 33.1644 27.3875 33.1362C27.402 33.1079 27.423 33.0835 27.4488 33.065L35.1338 26.125C35.4838 25.815 35.0588 25.665 34.5988 25.945L24.9538 32.03C24.9246 32.0491 24.8914 32.0612 24.8567 32.0656C24.8221 32.0699 24.7869 32.0663 24.7538 32.055L20.6588 30.76C19.7488 30.495 19.7488 29.87 20.8638 29.425L37.2488 23.105C37.3788 23.0427 37.5199 23.007 37.6638 23Z" stroke="white" stroke-width="1.5" stroke-linecap="round" stroke-linejoin="round"/>
</svg>
