<svg width="60" height="60" viewBox="0 0 60 60" fill="none" xmlns="http://www.w3.org/2000/svg">
<rect width="60" height="60" rx="30" fill="black" fill-opacity="0.8"/>
<path d="M30.044 19.8387C24.2805 19.8387 19.5901 24.3564 19.5881 29.9085C19.5867 31.6841 20.069 33.4169 20.9835 34.9431L19.5 40.1613L25.0433 38.7611C26.5853 39.5676 28.2998 39.9884 30.04 39.9872H30.044C35.8075 39.9872 40.498 35.4688 40.5 29.9167C40.5014 27.2273 39.4148 24.6958 37.4401 22.7929C35.4661 20.8894 32.8411 19.8394 30.044 19.8387ZM30.044 38.2862H30.0406C28.4812 38.2862 26.9516 37.8825 25.6171 37.1197L25.2987 36.9381L22.0105 37.7686L22.8885 34.6796L22.6818 34.3633C21.814 33.0397 21.352 31.4913 21.3527 29.9085C21.3548 25.2933 25.254 21.5397 30.0474 21.5397C32.3683 21.5404 34.5502 22.4122 36.1916 23.994C37.833 25.5758 38.736 27.6792 38.7346 29.916C38.7326 34.5313 34.8341 38.2862 30.0434 38.2862H30.044ZM34.811 32.0167C34.5495 31.8914 33.2652 31.2824 33.0254 31.1977C32.7862 31.1144 32.6121 31.071 32.438 31.323C32.2646 31.575 31.7633 32.142 31.6116 32.3093C31.4585 32.4773 31.3061 32.4976 31.0446 32.3723C30.7831 32.2463 29.9411 31.9808 28.9439 31.1232C28.1669 30.4566 27.6426 29.6328 27.4902 29.3802C27.3377 29.1288 27.4739 28.9927 27.6046 28.8674C27.7218 28.7556 27.8661 28.574 27.9962 28.427C28.1263 28.28 28.1696 28.175 28.2577 28.007C28.3444 27.8397 28.301 27.692 28.2353 27.5667C28.1696 27.44 27.648 26.2017 27.4292 25.6984C27.2178 25.2079 27.0024 25.2736 26.8419 25.2655C26.6895 25.2587 26.516 25.2567 26.3406 25.2567C26.1678 25.2567 25.884 25.3197 25.6442 25.5717C25.4051 25.8237 24.7297 26.432 24.7297 27.6704C24.7297 28.9094 25.6659 30.1057 25.7966 30.2737C25.9274 30.441 27.6392 32.9834 30.2601 34.074C30.8834 34.3321 31.3697 34.4872 31.7498 34.6037C32.3757 34.7954 32.9454 34.7677 33.3952 34.7033C33.8965 34.6308 34.9411 34.095 35.1579 33.5077C35.376 32.9204 35.376 32.4164 35.311 32.3114C35.2473 32.2064 35.0725 32.1434 34.811 32.0167Z" fill="white"/>
</svg>
