<svg width="60" height="60" viewBox="0 0 60 60" fill="none" xmlns="http://www.w3.org/2000/svg">
<rect width="60" height="60" rx="30" fill="black" fill-opacity="0.8"/>
<path d="M37.875 22.1375C37.7593 22.0216 37.622 21.9297 37.4708 21.867C37.3195 21.8042 37.1574 21.7719 36.9937 21.7719C36.83 21.7719 36.6679 21.8042 36.5167 21.867C36.3655 21.9297 36.2281 22.0216 36.1125 22.1375L30 28.2375L23.8875 22.125C23.7717 22.0093 23.6344 21.9175 23.4832 21.8548C23.3319 21.7922 23.1699 21.76 23.0062 21.76C22.8426 21.76 22.6805 21.7922 22.5293 21.8548C22.3781 21.9175 22.2407 22.0093 22.125 22.125C22.0092 22.2407 21.9174 22.3781 21.8548 22.5293C21.7922 22.6805 21.7599 22.8426 21.7599 23.0063C21.7599 23.1699 21.7922 23.332 21.8548 23.4832C21.9174 23.6344 22.0092 23.7718 22.125 23.8875L28.2375 30L22.125 36.1125C22.0092 36.2282 21.9174 36.3656 21.8548 36.5168C21.7922 36.668 21.7599 36.8301 21.7599 36.9938C21.7599 37.1574 21.7922 37.3195 21.8548 37.4707C21.9174 37.6219 22.0092 37.7593 22.125 37.875C22.2407 37.9907 22.3781 38.0825 22.5293 38.1452C22.6805 38.2078 22.8426 38.24 23.0062 38.24C23.1699 38.24 23.3319 38.2078 23.4832 38.1452C23.6344 38.0825 23.7717 37.9907 23.8875 37.875L30 31.7625L36.1125 37.875C36.2282 37.9907 36.3656 38.0825 36.5168 38.1452C36.668 38.2078 36.8301 38.24 36.9937 38.24C37.1574 38.24 37.3194 38.2078 37.4707 38.1452C37.6219 38.0825 37.7592 37.9907 37.875 37.875C37.9907 37.7593 38.0825 37.6219 38.1451 37.4707C38.2078 37.3195 38.24 37.1574 38.24 36.9938C38.24 36.8301 38.2078 36.668 38.1451 36.5168C38.0825 36.3656 37.9907 36.2282 37.875 36.1125L31.7625 30L37.875 23.8875C38.35 23.4125 38.35 22.6125 37.875 22.1375Z" fill="white"/>
</svg>
